<svg width="33" height="34" viewBox="0 0 33 34" fill="none" xmlns="http://www.w3.org/2000/svg">
<path d="M25.5357 10.8852C25.3165 10.6651 25.009 10.5651 24.708 10.6163C24.4065 10.6672 24.1461 10.8628 24.0063 11.1434C23.5253 12.1089 22.9143 12.9961 22.1954 13.7805C22.2671 13.2139 22.3031 12.6439 22.3031 12.0724C22.3031 10.9759 22.1609 9.84742 21.8802 8.71805C20.9574 5.00853 18.5375 1.87144 15.2412 0.111205C14.9542 -0.0419942 14.6123 -0.0366153 14.3299 0.125549C14.0475 0.287779 13.8626 0.585213 13.8373 0.917908C13.5803 4.28895 11.8997 7.35586 9.22379 9.33424C9.18837 9.3606 9.15321 9.38729 9.11806 9.41386C9.04523 9.46891 8.97659 9.52097 8.91244 9.56467C8.90242 9.57157 8.89245 9.57861 8.88268 9.58585C7.19973 10.8308 5.8111 12.4903 4.86672 14.3854C3.90711 16.3131 3.42056 18.3818 3.42056 20.5337C3.42056 21.6299 3.56279 22.7583 3.84335 23.8879C5.3239 29.8417 10.5098 33.9999 16.4545 33.9999C23.641 33.9999 29.4876 27.9589 29.4876 20.5337C29.4876 16.872 28.0841 13.4454 25.5357 10.8852V10.8852Z" fill="#FF5555"/>
<ellipse cx="15.4862" cy="20" rx="3.87156" ry="4" fill="white"/>
</svg>
