<svg width="63" height="30" viewBox="0 0 63 30" fill="none" xmlns="http://www.w3.org/2000/svg">
<path d="M6.0904 23.1299C7.09307 23.1299 7.98005 22.9407 8.75133 22.5622C9.03685 22.4147 9.29727 22.2399 9.53259 22.0378C9.84124 21.7727 10.5156 21.9776 10.5156 22.3845V22.3845C10.5156 22.5982 10.6888 22.7714 10.9025 22.7714H12.5403C13.6584 22.7714 14.5649 21.8649 14.5649 20.7467V8.62464C14.5649 7.4266 13.5937 6.4554 12.3957 6.4554V6.4554C11.1976 6.4554 10.2264 7.4266 10.2264 8.62464V15.988C10.2264 16.9243 9.95647 17.6813 9.41657 18.2591C8.87667 18.8169 8.18251 19.0958 7.3341 19.0958C6.48568 19.0958 5.79153 18.8169 5.25163 18.2591C4.71173 17.6813 4.44178 16.9243 4.44178 15.988V8.62463C4.44178 7.4266 3.47058 6.4554 2.27254 6.4554V6.4554C1.07451 6.4554 0.103306 7.4266 0.103306 8.62464V16.3466C0.103306 18.3786 0.614282 20.0221 1.63623 21.2772C2.67747 22.5124 4.16219 23.1299 6.0904 23.1299Z" fill="black"/>
<path d="M17.7358 2.82191C17.7358 4.01994 18.707 4.99114 19.9051 4.99114V4.99114C21.1031 4.99114 22.0743 4.01994 22.0743 2.82191V2.67798C22.0743 1.47994 21.1031 0.508738 19.9051 0.508738V0.508738C18.707 0.508738 17.7358 1.47994 17.7358 2.67798V2.82191ZM17.7358 20.6021C17.7358 21.8002 18.707 22.7714 19.9051 22.7714V22.7714C21.1031 22.7714 22.0743 21.8002 22.0743 20.6021V8.62464C22.0743 7.4266 21.1031 6.4554 19.9051 6.4554V6.4554C18.707 6.4554 17.7358 7.4266 17.7358 8.62464V20.6021Z" fill="black"/>
<path d="M27.158 20.6021C27.158 21.8002 28.1292 22.7714 29.3272 22.7714V22.7714C30.5253 22.7714 31.4965 21.8002 31.4965 20.6021V12.0322C31.4965 11.0977 32.254 10.3401 33.1885 10.3401V10.3401C34.1229 10.3401 34.8805 9.58261 34.8805 8.64814V8.1474C34.8805 7.21294 34.1229 6.4554 33.1885 6.4554H31.7355C31.6035 6.4554 31.4965 6.34837 31.4965 6.21634V6.21634C31.4965 4.76204 32.316 4.0349 33.9549 4.0349V4.0349C34.4579 4.0349 34.9094 3.66785 34.9094 3.16487V1.84283C34.9094 0.940658 34.2786 0.150146 33.3765 0.150146V0.150146C31.4097 0.150146 29.8768 0.678074 28.7777 1.73393C27.6979 2.78979 27.158 4.28392 27.158 6.21634V6.21634C27.158 6.34837 27.051 6.4554 26.9189 6.4554H25.8275C25.0927 6.4554 24.4971 7.05107 24.4971 7.78586V9.00968C24.4971 9.74448 25.0927 10.3401 25.8275 10.3401V10.3401C26.5623 10.3401 27.158 10.9358 27.158 11.6706V20.6021Z" fill="black"/>
<path d="M37.1121 20.6021C37.1121 21.8002 38.0833 22.7714 39.2813 22.7714V22.7714C40.4794 22.7714 41.4506 21.8002 41.4506 20.6021V13.9858C41.4506 12.7706 41.7783 11.8343 42.4339 11.1769C43.0895 10.4995 43.9476 10.1609 45.0081 10.1609V10.1609C45.7589 10.1609 46.3675 9.55223 46.3675 8.80146V7.20164C46.3675 6.69048 45.9531 6.2761 45.442 6.2761V6.2761C44.4778 6.2761 43.6198 6.46536 42.8678 6.84387C42.6651 6.94309 42.4749 7.06747 42.2972 7.21701C41.9647 7.49699 41.1613 7.2847 41.1613 6.84997V6.84997C41.1613 6.63205 40.9847 6.4554 40.7667 6.4554H39.1367C38.0185 6.4554 37.1121 7.36185 37.1121 8.48002V20.6021Z" fill="black"/>
<path d="M50.7274 29.4053C53.6197 29.4053 55.7119 27.702 57.0038 24.2954L62.661 9.38328C63.1975 7.9691 62.1528 6.4554 60.6403 6.4554V6.4554C59.7259 6.4554 58.9105 7.03082 58.604 7.89232L58.3665 8.56C57.3683 11.3661 53.3998 11.3661 52.4016 8.56L52.1636 7.89074C51.8574 7.03019 51.0429 6.4554 50.1295 6.4554V6.4554C48.6173 6.4554 47.5736 7.97003 48.1122 9.38315L52.9493 22.0746C53.1197 22.5218 53.1112 23.0175 52.9256 23.4587V23.4587C52.6942 23.9965 52.3953 24.4747 52.029 24.893C51.6626 25.3114 51.0552 25.5206 50.2068 25.5206V25.5206C49.2201 25.5206 48.24 26.2325 48.24 27.2192V27.7893C48.24 28.4724 48.6109 29.1295 49.2798 29.2683C49.309 29.2744 49.3384 29.2802 49.368 29.2858C49.8115 29.3655 50.2647 29.4053 50.7274 29.4053Z" fill="black"/>
</svg>
